<svg width="216" height="127" viewBox="0 0 216 127" fill="none" xmlns="http://www.w3.org/2000/svg">
<g clip-path="url(#clip0_40_716)">
<path d="M16.1222 0.0345202L51.0192 52.816C51.0192 52.816 51.0192 52.8246 51.0365 52.8332L59.6765 65.4331C59.7542 65.5453 59.9357 65.4935 59.9357 65.3555V63.5863L53.7322 50.132C51.961 46.8181 51.0365 43.1158 51.0365 39.3531V0H67.4698V80.3459H50.7341L16.4333 28.0477V80.3459H0V0L16.1222 0.0345202Z" fill="#12A566"/>
<path d="M76.4122 0H127.898V13.834H92.7245V33.8126H124.606V46.0155H92.7245V66.7794H127.898V80.6134H76.4122V0Z" fill="#12A566"/>
<path d="M194.504 0L175.478 35.6335C174.701 37.092 174.709 38.8612 175.504 40.311L197.571 80.6048H216.009L190.763 37.8515L213.27 0H194.504Z" fill="#12A566"/>
<path d="M153.17 0L172.195 35.6335C172.973 37.092 172.964 38.8612 172.169 40.311L150.103 80.6048H131.665L156.911 37.8515L134.404 0H153.17Z" fill="#12A566"/>
<path d="M37.0311 107.687H49.3431V109.663H39.1738V116.127H48.8679V118.025H39.1738V124.809H49.3431V126.785H37.0311V107.687Z" fill="#12A566"/>
<path d="M62.0352 107.687H64.2298L72.2045 123.678L75.6346 107.687H77.7514L73.6819 126.785H71.5651L63.5386 110.69L60.1085 126.785H57.9658L62.0352 107.687Z" fill="#12A566"/>
<path d="M86.2791 107.687H98.5911V109.663H88.4218V116.127H98.1159V118.025H88.4218V124.809H98.5911V126.785H86.2791V107.687Z" fill="#12A566"/>
<path d="M108.838 107.687H114.065C120.165 107.687 122.593 109.533 122.593 113.909C122.593 117.361 120.986 119.372 117.599 119.82L122.515 126.785H119.794L114.117 118.293H114.886C118.636 118.293 120.459 117.076 120.459 113.969C120.459 110.862 118.584 109.594 114.013 109.594H110.972V126.793H108.829V107.695L108.838 107.687Z" fill="#12A566"/>
<path d="M131.89 117.188C131.89 111.354 135.536 107.401 140.841 107.401C144.539 107.401 147.234 108.851 148.66 111.915L146.604 112.415C145.437 110.301 143.588 109.326 140.875 109.326C136.78 109.326 134.032 112.441 134.032 117.214C134.032 121.986 136.676 125.102 140.849 125.102C145.022 125.102 147.347 122.754 147.502 118.431H140.901V116.532H149.697V117.749C149.697 123.471 146.267 127.009 140.772 127.009C135.277 127.009 131.898 123.16 131.898 117.196L131.89 117.188Z" fill="#12A566"/>
<path d="M165.404 121.331L157.404 107.687H159.857L166.458 119.113L173.137 107.687H175.617L167.538 121.331V126.793H165.396V121.331H165.404Z" fill="#12A566"/>
</g>
<defs>
<clipPath id="clip0_40_716">
<rect width="216" height="127" fill="white"/>
</clipPath>
</defs>
</svg>
